<svg width="350" height="450" viewBox="0 0 175 225" xmlns="http://www.w3.org/2000/svg">
<defs>
<linearGradient x1="50%" y1="47.777%" x2="50%" y2="93.668%" id="a">
<stop stop-color="#342348" offset=".859%"/>
<stop stop-color="#DB6A57" offset="100%"/>
</linearGradient>
<linearGradient x1="50%" y1="0%" x2="50%" y2="100%" id="b">
<stop stop-color="#E67B62" offset="0%"/>
<stop stop-color="#8C3355" offset="53.288%"/>
<stop stop-color="#261236" offset="100%"/>
</linearGradient>
</defs>
<g fill="none" fill-rule="evenodd">
<path d="M32 33.576c0-2.214 1.557-4.877 3.493-5.956L83.507.84c1.93-1.075 5.05-1.08 6.986 0l48.014 26.78c1.93 1.076 3.493 3.733 3.493 5.956v52.707c0 2.214-1.572 4.873-3.503 5.936l-47.994 26.417c-1.935 1.065-5.075 1.063-7.006 0L35.503 92.22C33.568 91.153 32 88.506 32 86.282V33.576z" fill="url(#a)"/>
<g fill-rule="nonzero">
<path d="M91.055 25.2c-.988-4.4 2.765-8.2 7.11-7.2 2.172.5 3.95 2.3 4.444 4.5.986 4.4-2.766 8.2-7.11 7.2-2.174-.5-3.95-2.3-4.445-4.5zm23.305 56.1c-3.358-.5-6.123 2.4-5.63 5.7.297 2.1 1.976 3.8 4.05 4.1 3.358.5 6.123-2.4 5.63-5.7-.2-2-1.976-3.8-4.05-4.1zm3.752-21.3c7.308 8.3 10.37 16.5 7.21 22-.988 1.8-2.667 3.2-4.74 4.2 0-1.1-.297-2.1-.692-3 1.284-.7 2.27-1.6 2.963-2.7 2.468-4.3-.395-11.1-6.617-18.3-2.864 3-6.22 5.9-9.875 8.6-.492 4.7-1.282 9.1-2.37 13 1.088.2 2.174.4 3.16.6-.196.6-.295 1.2-.295 1.9 0 .4 0 .8.1 1.1-1.285-.2-2.57-.4-3.852-.7C99.45 97.3 94.018 104 87.698 104c-6.32 0-11.752-6.7-15.208-17.3-1.382.3-2.765.5-4.05.7-1.776.2-3.455.3-5.035.3-6.517 0-11.16-2-13.33-5.7-1.186-2.1-1.483-4.6-.99-7.3.79.6 1.78 1 2.865 1-.198 1.8 0 3.5.79 4.8 1.975 3.5 7.604 4.9 15.405 3.9l3.555-.6c-1.086-3.9-1.876-8.3-2.37-13-3.752-2.7-7.01-5.6-9.974-8.6-.79.9-1.58 1.9-2.27 2.8-.1.2-.198.3-.396.5-.593-.6-1.284-1-1.975-1.3-.1-.3-.1-.4-.198-.7.89-1.2 1.778-2.3 2.765-3.5-.987-1.1-1.876-2.1-2.666-3.2-5.63-7.5-7.21-14.1-4.542-18.8 2.666-4.7 9.184-6.6 18.367-5.4 1.285.2 2.668.4 4.05.7C75.848 22.7 81.378 16 87.698 16c1.58 0 3.16.4 4.64 1.3-.888.6-1.58 1.4-2.172 2.2-.79-.3-1.678-.5-2.468-.5-4.84 0-9.382 5.9-12.344 15 3.95 1 8.097 2.5 12.344 4.4 4.147-1.9 8.393-3.4 12.343-4.4-.295-.8-.59-1.7-.888-2.5.988-.3 1.877-.8 2.667-1.4.394 1 .79 2.1 1.184 3.2 1.382-.3 2.765-.5 4.048-.7 9.184-1.2 15.702.7 18.368 5.4 2.666 4.7 1.086 11.3-4.543 18.8-.888 1-1.777 2.1-2.764 3.2zm-14.318-23.8c1.086 3.9 1.876 8.3 2.37 13 3.752 2.8 7.11 5.7 9.974 8.6.79-.9 1.58-1.9 2.27-2.8 4.74-6.3 6.32-12 4.346-15.5-1.58-2.8-5.431-4.2-10.764-4.2-1.382 0-2.962.1-4.64.3-1.186.1-2.37.3-3.556.6zm-12.541 3.9c1.975 1 3.95 2.1 5.924 3.2 1.975 1.2 3.852 2.3 5.63 3.6-.495-3.6-1.186-6.9-1.976-10-3.06.8-6.32 1.8-9.578 3.2zM103.3 50.8c-2.37-1.7-4.938-3.4-7.604-5-2.666-1.6-5.332-3-7.998-4.2-2.667 1.2-5.333 2.7-8 4.2-2.665 1.6-5.233 3.2-7.603 4.9-.296 3-.395 6-.395 9.2 0 3.1.197 6.2.395 9.2 2.37 1.7 4.938 3.4 7.604 4.9 2.665 1.6 5.33 3 7.998 4.2 2.666-1.2 5.332-2.7 7.998-4.2 2.666-1.6 5.234-3.2 7.604-4.9.296-3 .395-6 .395-9.2.1-3-.1-6.1-.395-9.1zm-28.835-14c-.89 3.1-1.48 6.4-1.975 10 1.778-1.2 3.753-2.4 5.63-3.6 1.974-1.1 3.95-2.2 5.924-3.2-3.26-1.3-6.42-2.4-9.58-3.2zM56.985 55c.693.9 1.483 1.9 2.273 2.8 2.863-3 6.22-5.9 9.973-8.6.495-4.7 1.285-9.1 2.37-13-1.184-.3-2.37-.5-3.554-.6-1.678-.2-3.16-.3-4.64-.3-5.334 0-9.185 1.5-10.765 4.2-2.072 3.5-.492 9.1 4.346 15.5zm11.85 11.8c-.097-2.2-.196-4.5-.196-6.8s.097-4.6.196-6.8c-2.765 2.2-5.332 4.5-7.603 6.8 2.27 2.3 4.838 4.6 7.603 6.8zm5.63 16.4c3.06-.8 6.32-1.9 9.58-3.2-1.976-1-3.95-2.1-5.926-3.2s-3.853-2.3-5.63-3.6c.494 3.5 1.185 6.9 1.975 10zM100.04 86c-3.95-1-8.096-2.5-12.343-4.4-4.246 1.9-8.393 3.4-12.343 4.4 2.962 9.1 7.406 15 12.344 15 4.838 0 9.282-5.9 12.343-15zm2.865-12.9c-1.778 1.2-3.752 2.4-5.63 3.6-1.974 1.1-3.95 2.2-5.924 3.2 3.26 1.3 6.52 2.4 9.58 3.2.79-3 1.48-6.4 1.975-10zm11.16-13.1c-2.174-2.3-4.74-4.6-7.605-6.8.1 2.2.198 4.5.198 6.8s-.1 4.6-.198 6.8c2.864-2.2 5.333-4.5 7.604-6.8zM51.75 73.7c2.667.4 4.938-1.9 4.543-4.6-.296-1.7-1.58-3.1-3.26-3.3-2.665-.4-4.936 1.9-4.54 4.6.295 1.7 1.58 3 3.258 3.3z" fill="#F6EEE3"/>
<path d="M93.685 61.917c0 .85-.247 1.57-.74 2.168-.494.597-1.085.895-1.773.895-.56 0-1.013-.1-1.364-.298v-5.51c.364-.226.818-.34 1.364-.34.688 0 1.28.303 1.773.907.493.602.74 1.328.74 2.177zm-6.682-8.514c0 .848-.247 1.575-.74 2.178-.494.604-1.085.906-1.773.906-.56 0-1.013-.1-1.364-.298v-5.51c.364-.226.818-.34 1.364-.34.688 0 1.28.3 1.773.896.493.597.74 1.32.74 2.17zm10.948 8.574c0-1.778-.57-3.296-1.713-4.556-1.143-1.26-2.526-1.89-4.15-1.89-.26 0-.512.02-.76.06-.298 1.035-.804 1.937-1.52 2.706-1.13 1.26-2.5 1.93-4.11 2.01v12.652l4.11-.816v-4.098c.664.252 1.423.378 2.28.378 1.624 0 3.007-.63 4.15-1.89 1.143-1.26 1.714-2.778 1.714-4.555zm-6.68-8.495c0-1.777-.575-3.295-1.725-4.555-1.15-1.26-2.536-1.89-4.16-1.89-.96 0-1.876.24-2.746.716h-3.624v16.71l4.11-.815V59.55c.715.252 1.468.378 2.26.378 1.623 0 3.01-.63 4.16-1.89 1.15-1.26 1.723-2.78 1.723-4.556z" fill="#F6EEE3"/>
<path d="M131.198 143.86c0-3.652-7.17-6.89-18.15-8.876.247-2.485.545-4.925.895-7.292 12.654 2.243 24.536 6.824 24.536 16.17 0 11.485-17.89 15.782-33.158 17.375-7.273.745-13.95.89-17.81.89-3.85 0-10.534-.138-17.8-.89-15.268-1.593-33.165-5.89-33.165-17.376 0-9.344 11.89-13.925 24.544-16.168.35 2.367.656 4.8.904 7.292-10.987 1.987-18.166 5.224-18.166 8.877 0 4.495 10.783 8.353 26.182 10.048 5.366.585 11.278.913 17.503.913s12.145-.327 17.504-.912c15.413-1.695 26.18-5.553 26.18-10.047zM87.513 118.29c7.813 0 15.34-1.85 22.09-5.224-.436 2.053-4.412 32.653-4.44 33.464-5.032.6-10.9.987-17.65.987-6.75 0-12.632-.388-17.656-.987-.036-1.037-3.982-31.41-4.426-33.457 6.743 3.377 14.278 5.218 22.083 5.218zM7.423 208.86c-4.02 0-7.28-3.27-7.28-7.305 0-4.036 3.26-7.307 7.28-7.307 4.022 0 7.282 3.27 7.282 7.307 0 4.035-3.26 7.306-7.28 7.306zm141.978-21.92c6.03 0 10.922 4.91 10.922 10.96 0 6.05-4.893 10.96-10.92 10.96H25.625c-6.028 0-10.92-4.91-10.92-10.96 0-6.05 4.892-10.96 10.92-10.96 1.39 0 2.71.286 3.932.77 1.383-8.71 8.846-15.382 17.91-15.382 8.876 0 16.237 6.37 17.853 14.803l.35-.19 3.314-18.404s13.018.89 18.53.89c5.51 0 18.53-.89 18.53-.89l3.312 18.405.35.19c1.616-8.43 8.977-14.802 17.852-14.802 9.065 0 16.528 6.67 17.91 15.38 1.224-.482 2.55-.767 3.933-.767zm18.203 21.92c-4.02 0-7.28-3.27-7.28-7.305 0-4.036 3.26-7.307 7.28-7.307 4.02 0 7.28 3.27 7.28 7.307 0 4.035-3.26 7.306-7.28 7.306z" fill="url(#b)" transform="translate(0 16)"/>
</g>
</g>
</svg>
